<svg width="750" height="750" xmlns="http://www.w3.org/2000/svg" xmlns:xlink="http://www.w3.org/1999/xlink">
  <defs>
    <path d="M227.907 87.69c75.628-39.05 170.424-54.905 284.898-33.834 32.756 6.01 62.791 17.081 89.658 32.265 27.892-21.874 57.07-38.084 87.537-48.63 52-18 62 2 52 58-5.856 32.793-11.454 76.386-16.796 130.782 25.836 62.34 31.614 135.065 12.492 207.892-18.707 71.143 5.588 76.91 5.53 115.04 0 5.002-.648 9.945-1.942 14.829-18.942 73.202-176.536 130.457-368.19 130.457-204.48 0-370.192-65.081-370.192-145.286-11.202-98.909 9.955-211.862 64.7-305.8-1.028-103.278-.895-163.583.398-180.914 2.162-28.967 16-86 69-52 32.904 21.108 63.206 46.842 90.907 77.2z" id="a"/>
  </defs>
  <g fill="none" fill-rule="evenodd">
    <g transform="translate(0 8.509)">
      <mask id="b" fill="#fff">
        <use xlink:href="#a"/>
      </mask>
      <use fill="#FCC21B" fill-rule="nonzero" xlink:href="#a"/>
      <g mask="url(#b)">
        <path fill="#C00" fill-rule="nonzero" d="M-92.52-17.073h431.947v723H-92.52z"/>
        <path fill="#00C" fill-rule="nonzero" d="M337.573-17.073H769.52v723H337.573z"/>
        <path fill="#0C0" fill-rule="nonzero" d="M194.827-17.073h287.346v723H194.827z"/>
        <path d="M338.885 344.654c241.102 241.232 241.102-241.232 0 0-241.103 241.232-241.103-241.232 0 0z" stroke="#FFF" stroke-width="64"/>
      </g>
    </g>
    <path d="M229 375c13.333 47.333 23 71.333 29 72 6 .667 26.667-18 62-56 27.333 46 43.667 71.333 49 76 5.333 4.667 28-15.667 68-61" stroke="#2F2F2F" stroke-width="30" stroke-linecap="round" stroke-linejoin="round"/>
    <path d="M556.331 308.834c-7.4 34.707-36.728 57.983-65.513 51.959-28.989-6.093-46.436-39.158-39.172-73.865 7.4-34.776 36.728-58.052 65.649-51.96 28.853 5.957 46.368 38.953 39.036 73.866zM158.552 235.727c15.25-30.3 48.156-44.648 73.505-32.301 25.281 12.413 33.508 46.916 18.325 77.148-15.182 30.232-48.022 44.648-73.37 32.235-25.282-12.414-33.575-46.984-18.46-77.082z" fill="#2F2F2F" fill-rule="nonzero"/>
    <g fill="#2F2F2F">
      <path d="M517 464c2.536-3.92 24.188 8.94 54 29 29.812 20.06 60.606 34.972 58 39-2.606 4.028-42.805-5.7-70-24s-44.536-40.08-42-44zM525 409c-2-6-2-10 23-9s83 16 102 32c4.7 3.957-37.13-.875-68-7-30.87-6.125-55-10-57-16zM151 412c-19 21-52 36-84 53s-49.439 8.263-14-13c35.439-21.263 84-43 98-40zM156 352c-53-2-107 5-116 16 0 3.438 103 3 116 0s8.636-15.674 0-16z"/>
    </g>
  </g>
</svg>
