<svg xmlns="http://www.w3.org/2000/svg" xmlns:xlink="http://www.w3.org/1999/xlink" viewBox="0 0 750 750">
  <defs>
    <path d="M523.079 66.934c54.087 54.088 33.802 149.947-23.638 225.507C403 420 266 495 217.379 493.369c-48.621-1.631-209.603-222.173-215.99-313.27C-5 89 20 46 74.858 14.147 142.991-25.411 237 26 284.876 110.508 349 26 468.99 12.847 523.079 66.934z" id="a"/>
  </defs>
  <g fill="none" fill-rule="evenodd">
    <path d="M137 19.491c32.91 21.112 63.216 46.85 90.92 77.215l-.014-.015c75.63-39.051 170.425-54.906 284.899-33.835 32.755 6.01 62.79 17.081 89.657 32.264 27.89-21.871 57.07-38.082 87.538-48.629 52-18 62 2 52 58-5.856 32.796-11.456 76.395-16.797 130.798 25.837 62.334 31.613 135.054 12.493 207.876-18.707 71.143 5.588 76.91 5.53 115.04 0 5.002-.648 9.945-1.942 14.829-18.942 73.202-176.536 130.457-368.19 130.457-204.48 0-370.192-65.081-370.192-145.286-11.201-98.904 9.953-211.852 64.693-305.787C66.574 149.132 66.707 88.823 68 71.49c2.162-28.967 16-86 69-52z" fill="#FCC21B" fill-rule="nonzero"/>
    <path d="M229 375.491c13.333 47.334 23 71.334 29 72 6 .667 26.667-18 62-56 27.333 46 43.667 71.334 49 76 5.333 4.667 28-15.666 68-61" stroke="#2F2F2F" stroke-width="30" stroke-linecap="round" stroke-linejoin="round"/>
    <path d="M496.331 275.325c-7.4 34.708-36.728 57.983-65.513 51.959-28.989-6.093-46.436-39.158-39.172-73.865 7.4-34.776 36.728-58.052 65.649-51.959 28.853 5.956 46.368 38.952 39.036 73.865zM167.552 234.218c15.25-30.299 48.156-44.647 73.505-32.301 25.281 12.413 33.508 46.916 18.325 77.148-15.182 30.233-48.022 44.648-73.37 32.235-25.282-12.413-33.575-46.983-18.46-77.082z" fill="#2F2F2F" fill-rule="nonzero"/>
    <g fill="#2F2F2F">
      <path d="M517 464.491c2.536-3.92 24.188 8.94 54 29 29.812 20.06 60.606 34.972 58 39-2.606 4.028-42.805-5.7-70-24s-44.536-40.08-42-44zM525 409.491c-2-6-2-10 23-9s83 16 102 32c4.7 3.957-37.13-.875-68-7-30.87-6.125-55-10-57-16zM151 412.491c-19 21-52 36-84 53s-49.439 8.264-14-13c35.439-21.263 84-43 98-40zM156 352.491c-53-2-107 5-116 16 0 3.438 103 3 116 0s8.636-15.674 0-16z"/>
    </g>
    <g>
      <g transform="translate(13 255)">
        <mask id="b" fill="#fff">
          <use xlink:href="#a"/>
        </mask>
        <use fill="#D8D8D8" xlink:href="#a"/>
        <g fill-rule="nonzero" mask="url(#b)">
          <path fill="#000" d="M-175.56 266.874l827.682 131.092-26.229 165.603-827.682-131.092z"/>
          <path fill="red" d="M-149.332 101.272l827.683 131.092-26.229 165.602-827.683-131.092z"/>
          <path fill="#00F" d="M-123.103-64.33L704.58 66.761l-26.229 165.602-827.683-131.092z"/>
          <path d="M205.346 286.016c1.064-6.72 4.04-12.077 6.961-18.768l24.16-51.812c2.035-4.447 1.884-6.856-3.823-7.76-17.12-2.711-26.417.586-35.59 18.209-.723 1.21-1.092 3.536-3.167 3.208-2.075-.33-3.1-3.936-2.076-10.397 2.17-13.699 15.138-31.78 47.563-26.645 11.413 1.807 23.482 4.514 34.773 7.097 8.738 1.914 16.697 3.704 23.96 4.855 7.004 1.109 12.3-.437 16.219-1.67 3.14-1.358 4.9-2.404 6.198-2.198 2.594.41 2.785 2.56 1.885 8.247-1.147 7.237-8.068 15.678-11.959 15.062-6.744-1.068-14.622-3.376-17.994-3.91-5.447-.862-7.645-.416-9.788 6.398-2.184 7.073-11.902 36.533-13.498 46.613-.983 6.203 3.017 9.486 7.905 10.525 2.813.71 6.007.687 8.765.064 2.198-.447 3.618-1.017 4.136-.935 2.335.37 2.39 1.703 1.98 4.288-1.35 8.53-9.104 20.548-21.555 18.576-8.56-1.355-14.773-10.818-12.153-27.36 1.965-12.406 14.1-47.046 15.368-55.059.492-3.101-.574-6.45-2.908-6.82l-19.332-3.856c-3.331-.792-5.393.47-7.044 4.183-12.408 27.974-17.43 46.255-19.874 58.32-1.569 8.23-1.61 13.523-1.582 16.707.082 4.517-.027 6.884-3.658 6.309-3.373-.534-14.486-7.594-13.872-11.47z" fill="#FF0"/>
        </g>
      </g>
      <path d="M74.715 319.095c-27.016 25.776-34 56-25 79s44 23 52-3 18-38 51-45 31-48 6-56-56.985-.776-84 25z" fill-opacity=".34" fill="#FFF"/>
    </g>
    <g>
      <path d="M391 682c-32.042-30.366-53.709-58.032-65-83-16.937-37.452-21.85-60.259-16-86 5.85-25.741 28-49 49-49s42 8 47 0 29.951-11.435 39-5c9.049 6.435 7 27 5 37s-11 16-2 37c7.964 18.582 25.63 32.582 53 42L391 682z" fill="#FCC21B"/>
      <path d="M386 678c-25.376-22.366-48.709-54.032-60-79-16.937-37.452-21.85-60.259-16-86 5.85-25.741 28-49 49-49s39 8 47 0 18-19 39-5-8 54 3 74c9.618 17.487 30.63 35.915 50 40" stroke="#2F2F2F" stroke-width="15" stroke-linecap="round" stroke-linejoin="round"/>
    </g>
    <g>
      <path d="M26 497c28-5.333 50-20.333 66-45-3-69 58-59 64-19 53 0 67 92 37 107-20 10-50.333 39.667-91 89L26 497z" fill="#FCC21B"/>
      <path d="M26 497c28-5.333 66-34 66-45-7-61 52-66 64-19 67 4 67 92 37 107-20 10-50.333 39.667-91 89" stroke="#2F2F2F" stroke-width="15" stroke-linecap="round" stroke-linejoin="round"/>
    </g>
  </g>
</svg>
