<?xml version="1.0" encoding="UTF-8"?>
<svg width="750px" height="750px" viewBox="0 0 750 750" version="1.1" xmlns="http://www.w3.org/2000/svg" xmlns:xlink="http://www.w3.org/1999/xlink">
    <!-- Generator: Sketch 54.1 (76490) - https://sketchapp.com -->
    <title>QueerCatHeart_Ace</title>
    <desc>Created with Sketch.</desc>
    <defs>
        <path d="M523.078517,66.9342892 C577.166131,121.021904 556.881384,216.881384 499.440692,292.440692 C403,420 266,495 217.378994,493.368924 C168.757989,491.737848 7.77618832,271.196426 1.38809416,180.098213 C-5,89 20,46 74.8594362,14.1476367 C142.990986,-25.4107514 237,26 284.875626,110.507603 C349,26 468.990902,12.8466748 523.078517,66.9342892 Z" id="path-1"></path>
    </defs>
    <g id="QueerCatHeart_Ace" stroke="none" stroke-width="1" fill="none" fill-rule="evenodd">
        <g id="Blobcat/Heart" transform="translate(0.000000, 9.000000)">
            <g id="Blobcat-Heart">
                <path d="M227.906579,87.6908427 C303.535374,48.6398489 398.330872,32.7854381 512.804599,53.8564005 C545.560576,59.8653664 575.596087,70.9374708 602.462903,86.1209744 C630.354683,64.2471357 659.533716,48.0372055 690,37.491184 C742,19.491184 752,39.491184 742,95.491184 C736.144211,128.283603 730.545599,171.877455 725.204164,226.27274 C751.039563,288.613086 756.817609,361.337947 737.695901,434.165265 C718.989274,505.307678 743.284358,511.074392 743.225532,549.205313 C743.225532,554.207054 742.578448,559.149951 741.284279,564.034004 C722.342348,637.235958 564.747842,694.491184 373.093157,694.491184 C168.614433,694.491184 2.90195627,629.409704 2.90195627,549.205313 C-8.29960895,450.296204 12.8565239,337.343185 67.6021059,243.405026 C66.5739942,140.127016 66.7066256,79.8224017 68,62.491184 C70.1617413,33.5238511 84,-23.508816 137,10.491184 C169.903818,31.5992934 200.206011,57.332513 227.906579,87.6908427 Z" id="Body" fill="#FCC21B" fill-rule="nonzero"></path>
                <g id="Face" transform="translate(33.000000, 190.491184)">
                    <path d="M196,176 C209.333333,223.333333 219,247.333333 225,248 C231,248.666667 251.666667,230 287,192 C314.333333,238 330.666667,263.333333 336,268 C341.333333,272.666667 364,252.333333 404,207" id="Mouth" stroke="#2F2F2F" stroke-width="30" stroke-linecap="round" stroke-linejoin="round"></path>
                    <path d="M463.331105,75.8338506 C455.931185,110.541462 426.603059,133.816784 397.818047,127.792583 C368.829367,121.699925 351.381848,88.6352774 358.64599,53.9276657 C366.045911,19.1515973 395.374037,-4.12372415 424.294827,1.96893351 C453.147728,7.92467752 470.663137,40.9208685 463.331105,75.8338506 Z" id="Right-eye" fill="#2F2F2F" fill-rule="nonzero"></path>
                    <path d="M134.552099,34.726728 C149.80142,4.42791339 182.707848,-9.92064418 208.0565,2.42578908 C233.338268,14.8389598 241.564875,49.3422355 226.382437,79.5743126 C211.2,109.80639 178.360454,124.221685 153.011803,111.808514 C127.730035,99.3953433 119.436545,64.8253301 134.552099,34.726728 Z" id="Left-eye" fill="#2F2F2F" fill-rule="nonzero"></path>
                    <g id="Wiskers" transform="translate(0.391648, 152.659469)" fill="#2F2F2F">
                        <path d="M483.608352,112.340531 C486.144618,108.420846 507.796286,121.280075 537.608352,141.340531 C567.420418,161.400986 598.21476,176.312446 595.608352,180.340531 C593.001944,184.368615 552.80306,174.639774 525.608352,156.340531 C498.413643,138.041288 481.072086,116.260215 483.608352,112.340531 Z" id="Right-bottom-wisker"></path>
                        <path d="M491.608352,57.3405307 C489.608352,51.3405307 489.608352,47.3405307 514.608352,48.3405307 C539.608352,49.3405307 597.608352,64.3405307 616.608352,80.3405307 C621.307533,84.297736 579.479187,79.4656964 548.608352,73.3405307 C517.737517,67.215365 493.608352,63.3405307 491.608352,57.3405307 Z" id="Right-top-wisker"></path>
                        <path d="M117.608352,60.3405307 C98.6083519,81.3405307 65.6083519,96.3405307 33.6083519,113.340531 C1.60835188,130.340531 -15.8306882,121.603955 19.6083519,100.340531 C55.0473919,79.0771067 103.608352,57.3405307 117.608352,60.3405307 Z" id="Left-bottom-wisker"></path>
                        <path d="M122.608352,0.340530712 C69.6083519,-1.65946929 15.6083519,5.34053071 6.60835188,16.3405307 C6.60835188,19.778701 109.608352,19.3405307 122.608352,16.3405307 C135.608352,13.3405307 131.244753,0.666432629 122.608352,0.340530712 Z" id="Left-top-wisker"></path>
                    </g>
                </g>
                <g id="Heart" transform="translate(12.411400, 245.579226)">
                    <g id="Main" transform="translate(0.588600, 0.420774)">
                        <mask id="mask-2" fill="white">
                            <use xlink:href="#path-1"></use>
                        </mask>
                        <use id="Mask" fill="#D8D8D8" xlink:href="#path-1"></use>
                        <g id="Flags/Ace" mask="url(#mask-2)">
                            <g transform="translate(251.559949, 249.645150) rotate(9.000000) translate(-251.559949, -249.645150) translate(-167.606717, -1.854850)" id="Ace">
                                <g>
                                    <rect id="4" fill="#800080" x="0" y="377.25" width="838" height="125.75"></rect>
                                    <rect id="3" fill="#FFFFFF" x="0" y="251.5" width="838" height="125.75"></rect>
                                    <rect id="2" fill="#A3A3A3" x="2.27373675e-13" y="125.75" width="838" height="125.75"></rect>
                                    <rect id="1" fill="#000000" x="1.13686838e-13" y="0" width="838" height="125.75"></rect>
                                </g>
                            </g>
                        </g>
                    </g>
                    <path d="M62.3033738,64.5158201 C35.2879045,90.2920476 28.3033738,120.51582 37.3033738,143.51582 C46.3033738,166.51582 81.3033738,166.51582 89.3033738,140.51582 C97.3033738,114.51582 107.303374,102.51582 140.303374,95.5158201 C173.303374,88.5158201 171.303374,47.5158201 146.303374,39.5158201 C121.303374,31.5158201 89.318843,38.7395926 62.3033738,64.5158201 Z" id="Hughlight" fill-opacity="0.34" fill="#FFFFFF"></path>
                </g>
                <g id="Right-paw" transform="translate(307.639926, 443.286759)">
                    <path d="M83.3600736,229.713241 C51.3178625,199.347601 29.6511959,171.680934 18.3600736,146.713241 C1.42339018,109.261702 -3.49019384,86.4544181 2.36007359,60.7132414 C8.21034101,34.9720648 30.3600736,11.7132414 51.3600736,11.7132414 C72.3600736,11.7132414 93.3600736,19.7132414 98.3600736,11.7132414 C103.360074,3.71324144 128.311491,0.278693565 137.360074,6.71324144 C146.408657,13.1477893 144.360074,33.7132414 142.360074,43.7132414 C140.360074,53.7132414 131.360074,59.7132414 140.360074,80.7132414 C148.32362,99.2948498 165.990287,113.29485 193.360074,122.713241 L83.3600736,229.713241 Z" id="Path" fill="#FCC21B"></path>
                    <path d="M78.3600736,225.713241 C52.9845292,203.347601 29.6511959,171.680934 18.3600736,146.713241 C1.42339018,109.261702 -3.49019384,86.4544181 2.36007359,60.7132414 C8.21034101,34.9720648 30.3600736,11.7132414 51.3600736,11.7132414 C72.3600736,11.7132414 90.3600736,19.7132414 98.3600736,11.7132414 C106.360074,3.71324144 116.360074,-7.28675856 137.360074,6.71324144 C158.360074,20.7132414 129.360074,60.7132414 140.360074,80.7132414 C149.978165,98.2006803 170.990287,116.628183 190.360074,120.713241" id="Path-Copy" stroke="#2F2F2F" stroke-width="15" stroke-linecap="round" stroke-linejoin="round"></path>
                </g>
                <g id="Left-paw" transform="translate(26.000000, 391.809854)">
                    <path d="M5.68434189e-14,96.1901464 C28,90.856813 50,75.856813 66,51.1901464 C63,-17.8098536 124,-7.80985363 130,32.1901464 C183,32.1901464 197,124.190146 167,139.190146 C147,149.190146 116.666667,178.856813 76,228.190146 L5.68434189e-14,96.1901464 Z" id="Path-2" fill="#FCC21B"></path>
                    <path d="M0,96.1901464 C28,90.856813 66,62.1901464 66,51.1901464 C59,-9.80985363 118,-14.8098536 130,32.1901464 C197,36.1901464 197,124.190146 167,139.190146 C147,149.190146 116.666667,178.856813 76,228.190146" id="Path-2-Copy" stroke="#2F2F2F" stroke-width="15" stroke-linecap="round" stroke-linejoin="round"></path>
                </g>
            </g>
        </g>
    </g>
</svg>