<svg xmlns="http://www.w3.org/2000/svg" width="750" height="750" fill="none"><path fill="#FCC21B" fill-rule="evenodd" d="M227.805 96.743c75.645-39.089 170.475-54.967 285-33.887 32.852 6.027 62.969 17.147 89.896 32.4 17.141-12.917 51.002-36.2 87.299-48.765 52-18 62 2 52 58-6.97 39.034-13.455 98.473-16.744 130.907 25.791 62.312 31.549 134.989 12.44 207.767-12.123 46.104-6.186 64.752-.522 82.545 3.076 9.664 6.072 19.075 6.052 32.495 0 5.002-.648 9.945-1.942 14.829-18.942 73.202-176.536 130.457-368.191 130.457-204.479 0-370.191-65.081-370.191-145.286-11.204-98.926 9.962-211.901 64.729-305.849-.505-56.588-1.184-160.05.369-180.865 2.162-28.967 16-86 69-52 41.162 26.406 76.896 62.463 90.805 77.252Z" clip-rule="evenodd"/><path stroke="#2F2F2F" stroke-linecap="round" stroke-linejoin="round" stroke-width="30" d="M229 375.491s20 71 29 72 62-56 62-56 41 69 49 76 68-61 68-61"/><path fill="#2F2F2F" d="M496.331 275.325c-7.4 34.708-36.728 57.983-65.513 51.959-28.989-6.093-46.436-39.158-39.172-73.865 7.4-34.776 36.728-58.052 65.649-51.959 28.853 5.956 46.368 38.952 39.036 73.865ZM167.552 234.218c15.249-30.299 48.156-44.647 73.505-32.301 25.281 12.413 33.508 46.916 18.325 77.149-15.182 30.232-48.022 44.647-73.37 32.234-25.282-12.413-33.575-46.983-18.46-77.082Z"/><path fill="#2F2F2F" fill-rule="evenodd" d="M517 464.491c2.536-3.92 24.188 8.94 54 29 29.812 20.061 60.606 34.972 58 39-2.607 4.028-42.806-5.701-70-24-27.195-18.299-44.536-40.08-42-44ZM525 409.491c-2-6-2-10 23-9s83 16 102 32c4.699 3.957-37.129-.875-68-7-30.871-6.125-55-10-57-16ZM151 412.491c-19 21-52 36-84 53s-49.44 8.264-14-13c35.439-21.263 84-43 98-40ZM156 352.491c-53-2-107 5-116 16 0 3.438 103 3 116 0s8.636-15.674 0-16Z" clip-rule="evenodd"/><path fill="#D8D8D8" fill-rule="evenodd" d="M536.079 321.934c54.087 54.088 33.803 149.947-23.638 225.507C416 675 279 750 230.379 748.369c-48.621-1.631-209.603-222.173-215.99-313.271C8 344 33 301 87.858 269.148 155.992 229.589 250 281 297.877 365.507 362 281 481.991 267.847 536.079 321.934Z" clip-rule="evenodd"/><mask id="a" width="555" height="494" x="13" y="255" maskUnits="userSpaceOnUse" style="mask-type:luminance"><path fill="#fff" fill-rule="evenodd" d="M536.079 321.934c54.087 54.088 33.803 149.947-23.638 225.507C416 675 279 750 230.379 748.369c-48.621-1.631-209.603-222.173-215.99-313.271C8 344 33 301 87.858 269.148 155.992 229.589 250 281 297.877 365.507 362 281 481.991 267.847 536.079 321.934Z" clip-rule="evenodd"/></mask><g mask="url(#a)"><path fill="#FF8ABD" d="m-110.103 190.669 828.012 131.144-78.384 494.896-828.012-131.144z"/><path fill="#CDF5FE" d="m-121.3 261.369 828.012 131.144-55.989 353.498-828.012-131.144z"/><path fill="#9AEBFF" d="m-132.498 332.068 828.012 131.144L661.92 675.31l-828.012-131.144z"/><path fill="#74DFFF" d="m-143.696 402.768 828.012 131.144-11.198 70.7-828.012-131.144z"/></g><path fill="#fff" fill-opacity=".34" fill-rule="evenodd" d="M74.715 319.095c-27.016 25.776-34 56-25 79s44 23 52-3 18-38 51-45 31-48 6-56-56.985-.776-84 25Z" clip-rule="evenodd"/><path fill="#FCC21B" fill-rule="evenodd" d="M391 682s-48.063-45.548-65-83c-16.936-37.451-21.85-60.259-16-86 5.85-25.741 28-49 49-49s42 8 47 0 29.952-11.434 39-5c9.049 6.435 7 27 5 37s-11 16-2 37c11.946 27.872 53 42 53 42L391 682Z" clip-rule="evenodd"/><path stroke="#2F2F2F" stroke-linecap="round" stroke-linejoin="round" stroke-width="15" d="M386 678c-25.375-22.366-48.709-54.032-60-79-16.936-37.451-21.85-60.259-16-86 5.85-25.741 28-49 49-49s39 8 47 0 18-19 39-5-8 54 3 74c9.618 17.488 30.63 35.915 50 40"/><path fill="#FCC21B" fill-rule="evenodd" d="M26 497s42-8 66-45c-3-69 58-59 64-19 53 0 67 92 37 107s-91 89-91 89L26 497Z" clip-rule="evenodd"/><path stroke="#2F2F2F" stroke-linecap="round" stroke-linejoin="round" stroke-width="15" d="M26 497c28-5.333 66-34 66-45-7-61 52-66 64-19 67 4 67 92 37 107-20 10-50.333 39.667-91 89"/></svg>