<svg xmlns="http://www.w3.org/2000/svg" width="750" height="750" fill="none"><g clip-path="url(#a)"><path fill="#FCC21B" d="M113.5 196.999C-15 354.999 12.5 566.5 12.5 566.5 28 596 88 644 125 638c34.5-26 149.722 32.248 241.913 28.5 136.336-5.543 325.36-29.089 378.587-114.5 0 0-6-264-94-342.5C713 47 661.5 45 484 92c-20.5-15.5-114-26.5-213 0C73 16.5 79 49 113.5 196.998Z"/><mask id="b" width="736" height="637" x="10" y="52" maskUnits="userSpaceOnUse" style="mask-type:alpha"><path fill="#FF763A" d="M113.5 196.999C-15 354.999 12.5 566.5 12.5 566.5 28 596 88 644 125 638c19 2 69-99.5 49-162.5C63.5 418.001 66.5 139 313.5 162.5c247 23.501 223.5 345-16 353-118 2-150 104-78.5 151S659.5 690 745.5 552c0 0-6-264-94-342.5C713 47 661.5 45 484 92c-20.5-15.5-114-26.5-213 0C73 16.5 79 49 113.5 196.998Z"/></mask><g mask="url(#b)"><path fill="#000" stroke="#979797" d="M-174.244-16.91 892.819 88.326l-63.27 641.546-1067.064-105.236z"/><path fill="#B9B9B9" d="M-183.71 73.982 884.348 179.316l-45.264 458.972-1068.059-105.335z"/><path fill="#fff" d="M-192.809 166.244 875.249 271.578l-27.16 275.403L-219.97 441.647z"/><path fill="#B8F483" d="M-201.827 257.683 866.231 363.017l-9.056 91.834-1068.059-105.335z"/></g><ellipse cx="410" cy="393.5" fill="url(#c)" rx="62" ry="37.5"/><ellipse cx="62" cy="37.5" fill="url(#d)" fill-opacity=".78" rx="62" ry="37.5" transform="scale(-1 1) rotate(-8.525 2035.56 1505.956)"/><path fill="#494949" fill-opacity=".7" fill-rule="evenodd" d="M492.5 334.5c-5 121.5-112 195-228.5 190.5-54.5 6-97.5 76.5-97.5-41.5-41-36.5-76-82.251-76-149 0-101.897 91.095-179.5 201-179.5s205.482 70.592 201 179.5Zm-369 0C128.5 192.5 286 188 286 188c149-13 179.5 115.5 175 146.5C453.5 506 261 496 261 496l-60 23-5-46c-65.5-36.5-72.5-138.5-72.5-138.5Z" clip-rule="evenodd"/><path fill="#FFFEFE" d="M8 601c-8-13-2.5-33.5 4.5-36.5 7.5-6.5 75.5 84.5 111 58 40-39.5 55-130 42-145-151-126.5-51.5-337.5 154-319l-4 33.5C142 188 67 356 190 456.5c45 36-28.5 191.5-48 205C93 704.5 16 614 8 601Z"/><path fill="#282828" fill-opacity=".7" d="M180.5 590.5c-7.5 69 78.5 99.5 43 113-43.078 0-71.5-48.705-71.5-102s28-95 107-110.5c43.078 0-78.5 46.205-78.5 99.5Z"/><path fill="#fff" d="M745 593.5c3-3 11-82-8-54-114.5 177-419.5 143-516 126-21-3.699-86.5-113 41.5-143.5 269 5.5 313-324.5 57-363.5l-4 33.5c223.5 35.5 157 298.5-53 298.5C96 522 160.5 684 200 698.5s385.5 86.5 545-105Z"/><path fill="#2F2F2F" fill-rule="evenodd" d="M222.741 357.691c-2.847 1.408-4.349 4.914-3.509 8.19 1.224 4.77 5.135 17.067 7.134 22.424 4.97 13.323 8.508 17.793 14.055 17.761 4.135-.024 8.806-3.394 20.175-14.557 4.557-4.475 8.314-7.8 8.529-7.548.212.247 2.538 3.955 5.169 8.239 6.513 10.606 12.026 18.746 14.256 21.051 3.469 3.586 8.131 3.666 13.316.226 5.698-3.779 16.322-14.073 28.409-27.525 3.371-3.753 4.233-5.922 3.463-8.719-.641-2.329-2.971-4.633-5.089-5.031-3.262-.614-4.863.091-8.154 3.588-12.239 13.007-15.065 15.918-19.119 19.697-2.515 2.343-4.781 4.26-5.037 4.26-.572 0-5.377-7.417-14.301-22.074-5.729-9.409-7.047-11.262-8.571-12.05-1.952-1.01-4.025-1.185-5.838-.494-.631.241-5.288 4.644-10.347 9.785-10.793 10.966-14.65 14.449-15.288 13.809-.75-.752-4.118-10.116-6.805-18.92-1.389-4.552-2.88-8.9-3.312-9.662-1.604-2.829-5.991-4.005-9.136-2.45Z" clip-rule="evenodd"/><path fill="#2F2F2F" d="M399.934 315.037c-4.728 22.28-23.466 37.221-41.856 33.354-18.52-3.911-29.667-25.136-25.027-47.416 4.728-22.323 23.466-37.264 41.943-33.353 18.434 3.823 29.624 25.004 24.94 47.415ZM173.294 269.776c10.688-21.265 33.754-31.335 51.521-22.67 17.721 8.712 23.488 32.927 12.846 54.145-10.642 21.217-33.661 31.334-51.428 22.623-17.721-8.712-23.534-32.974-12.939-54.098Z"/><path fill="#2F2F2F" fill-rule="evenodd" d="M392.362 403.076c1.219-3.642 22.092 1.021 51.363 9.26 29.272 8.238 58.195 12.263 56.943 16.006-1.252 3.742-36.807 6.002-63.509-1.513-26.702-7.515-46.015-20.112-44.797-23.753ZM401.682 383.709c-3.581-4.12-4.921-7.307 15.061-14.769 19.982-7.463 70.587-14.673 90.878-8.201 5.018 1.6-29.472 11.569-55.785 16.887-26.312 5.319-46.572 10.203-50.154 6.083ZM159.212 356.972c-17.2 10.896-42.889 14.916-68.278 20.518-25.389 5.602-35.718-3.84-7.125-11.735 28.592-7.895 66.33-13.577 75.403-8.783ZM153.175 322.945c-33.834-11.813-70.82-15.096-79.72-6.12-.956 3.33 66 22.098 75.27 21.615 9.27-.483 9.963-13.571 4.45-15.495Z" clip-rule="evenodd"/><mask id="e" width="545" height="507" x="-90" y="192" maskUnits="userSpaceOnUse" style="mask-type:alpha"><path fill="#D9D9D9" d="M155.016 616.352C71.761 496.136-90 287-90 287s565-19.5 309-58.5l96.5-36.5c223.5 35.5 157 298.5-53 298.5-92.615 17.522-113.756 75.421-107.484 125.852C190.584 667.711 211.824 702.84 200 698.5c-17.529-6.434-39.98-41.915-44.984-82.148Z"/></mask><g mask="url(#e)"><path fill="#fff" fill-opacity=".47" d="m322.321 474.827-155.819-9.306s11.801-12.216 10.132-25.76c-1.67-13.545-80.049-60.473-75.817-90.378 4.232-29.906 31.162-47.253 36.795-32.112 5.633 15.142 4.778 50.132 49.74 52.23 44.962 2.098 112.43 24.752 134.969 105.326Z"/><path fill="#ECE7ED" fill-rule="evenodd" d="M130.842 471.653c53.619-24.699 150.018-39.851 216.155 16.781 0 0-.022 9.912-2.312 24.439 4.322-.034 56.219.622 43.456 52.088-13.314 53.691-74.515 40.693-75.649 25.661l.228-.554c-16.951 20.415-42.284 36.047-80.144 37.114-114.113 3.216-101.734-155.529-101.734-155.529Zm195.504 98.055c-1.666 10.363 26.216 33.496 41.729-2.236 15.898-36.623-14.52-40.367-27.686-33.686l-.325.823c-3.042 11.241-7.42 23.402-13.718 35.099Z" clip-rule="evenodd"/><path fill="#842D1A" d="M242.193 469.423c-58.631-2.509-88.591 12.377-88.591 12.377s32.418 28.257 94.109 28.686c61.692.429 73.683-18.126 73.683-18.126s-20.57-20.428-79.201-22.937Z"/></g></g><defs><linearGradient id="c" x1="348" x2="468" y1="392.5" y2="392.5" gradientUnits="userSpaceOnUse"><stop stop-color="#FB8C1E" stop-opacity=".79"/><stop offset="1" stop-color="#FB8C1E" stop-opacity=".07"/></linearGradient><linearGradient id="d" x1="0" x2="120" y1="36.5" y2="36.5" gradientUnits="userSpaceOnUse"><stop stop-color="#FB8C1E" stop-opacity=".9"/><stop offset=".776" stop-color="#FB8C1E" stop-opacity=".07"/></linearGradient><clipPath id="a"><path fill="#fff" d="M0 0h750v750H0z"/></clipPath></defs></svg>