<?xml version="1.0" encoding="UTF-8"?>
<svg width="750px" height="750px" viewBox="0 0 750 750" version="1.1" xmlns="http://www.w3.org/2000/svg" xmlns:xlink="http://www.w3.org/1999/xlink">
    <!-- Generator: Sketch 59.1 (86144) - https://sketch.com -->
    <title>Heart_Progress</title>
    <desc>Created with Sketch.</desc>
    <defs>
        <path d="M746.607361,243.240969 C746.607361,131.061802 654.688417,40.1246354 541.318944,40.1246354 C472.494167,40.1246354 411.76275,73.7372188 374.5,125.113219 C337.23725,73.7372188 276.505833,40.1246354 207.701861,40.1246354 C94.3115833,40.1246354 2.39263889,131.041219 2.39263889,243.240969 C2.39263889,259.131302 4.43158333,274.527635 7.92691667,289.368219 C36.4305278,464.594135 233.355111,649.453052 374.5,700.211552 C515.624083,649.453052 712.569472,464.594135 741.031472,289.388802 C744.568417,274.548219 746.607361,259.151885 746.607361,243.240969 L746.607361,243.240969 Z" id="path-1"></path>
    </defs>
    <g id="Heart_Progress" stroke="none" stroke-width="1" fill="none" fill-rule="evenodd">
        <g id="Heart" transform="translate(1.000000, 4.000000)">
            <mask id="mask-2" fill="white">
                <use xlink:href="#path-1"></use>
            </mask>
            <use id="Mask" fill="#DD2E44" fill-rule="nonzero" xlink:href="#path-1"></use>
            <g id="Flags/Progress" mask="url(#mask-2)">
                <g transform="translate(-21.398437, 37.628906)">
                    <g id="Pride" stroke-width="1" fill="none">
                        <polygon id="Path" fill="#750787" fill-rule="nonzero" points="0 0 1122 0 1122 666 0 666"></polygon>
                        <polygon id="Path" fill="#004DFF" fill-rule="nonzero" points="0 0 1122 0 1122 555 0 555"></polygon>
                        <polygon id="Path" fill="#008026" fill-rule="nonzero" points="0 0 1122 0 1122 444 0 444"></polygon>
                        <polygon id="Path" fill="#FFED00" fill-rule="nonzero" points="0 0 1122 0 1122 333 0 333"></polygon>
                        <polygon id="Path" fill="#FF8C00" fill-rule="nonzero" points="0 0 1122 0 1122 222 0 222"></polygon>
                        <polygon id="Path" fill="#E40303" fill-rule="nonzero" points="0 0 1122 0 1122 111 0 111"></polygon>
                    </g>
                    <polygon id="Path-6-Copy-2" fill="#000000" points="0 -170.769231 498.769941 333 0 836.769231"></polygon>
                    <polygon id="Path-6-Copy" fill="#784F17" points="0 -85.3846154 414.232663 333 0 751.384615"></polygon>
                    <polygon id="Path-6" fill="#5BCEFA" points="0 0 329.695385 333 0 666"></polygon>
                    <polygon id="Path-6-Copy-3" fill="#F5A9B8" points="0 85.3846154 245.158107 333 0 580.615385"></polygon>
                    <polygon id="Path-6-Copy-4" fill="#FFFFFF" points="0 170.769231 160.620828 333 0 495.230769"></polygon>
                </g>
            </g>
        </g>
    </g>
</svg>