<?xml version="1.0" encoding="UTF-8"?>
<svg width="750px" height="750px" viewBox="0 0 750 750" version="1.1" xmlns="http://www.w3.org/2000/svg" xmlns:xlink="http://www.w3.org/1999/xlink">
    <!-- Generator: Sketch 59.1 (86144) - https://sketch.com -->
    <title>Heart_Polyamory</title>
    <desc>Created with Sketch.</desc>
    <defs>
        <path d="M746.607361,243.240969 C746.607361,131.061802 654.688417,40.1246354 541.318944,40.1246354 C472.494167,40.1246354 411.76275,73.7372188 374.5,125.113219 C337.23725,73.7372188 276.505833,40.1246354 207.701861,40.1246354 C94.3115833,40.1246354 2.39263889,131.041219 2.39263889,243.240969 C2.39263889,259.131302 4.43158333,274.527635 7.92691667,289.368219 C36.4305278,464.594135 233.355111,649.453052 374.5,700.211552 C515.624083,649.453052 712.569472,464.594135 741.031472,289.388802 C744.568417,274.548219 746.607361,259.151885 746.607361,243.240969 L746.607361,243.240969 Z" id="path-1"></path>
    </defs>
    <g id="Heart_Polyamory" stroke="none" stroke-width="1" fill="none" fill-rule="evenodd">
        <g id="Heart" transform="translate(1.000000, 4.000000)">
            <mask id="mask-2" fill="white">
                <use xlink:href="#path-1"></use>
            </mask>
            <use id="Mask" fill="#DD2E44" fill-rule="nonzero" xlink:href="#path-1"></use>
            <g id="Flags/Polyamory" mask="url(#mask-2)" fill-rule="evenodd" stroke-width="1">
                <g transform="translate(-181.398437, 37.628906)" id="Polyamory">
                    <g>
                        <polygon id="Black" fill="#000000" fill-rule="nonzero" points="0 444 1122 444 1122 666 0 666"></polygon>
                        <polygon id="Red" fill="#FF0000" fill-rule="nonzero" points="0 222 1122 222 1122 444 0 444"></polygon>
                        <polygon id="Blue" fill="#0000FF" fill-rule="nonzero" points="0 5.68434189e-14 1122 5.68434189e-14 1122 222 0 222"></polygon>
                        <path d="M507.726977,390.136991 C507.726977,381.128355 510.540074,373.505664 513.001534,364.150542 L534.099761,291.388486 C535.857946,285.151738 535.154672,282.033364 527.418656,282.033364 C504.210606,282.033364 492.606581,288.270112 484.167291,313.217103 C483.464016,314.949533 483.464016,318.067907 480.65092,318.067907 C477.837823,318.067907 475.728,313.563589 475.728,304.901439 C475.728,286.537682 489.09021,260.204748 533.044849,260.204748 C548.516882,260.204748 565.043827,261.244206 580.51586,262.283664 C592.471522,262.976636 603.372272,263.669607 613.218111,263.669607 C622.712313,263.669607 629.393419,260.551234 634.316338,258.125832 C638.184346,255.70043 640.294169,253.968 642.052355,253.968 C645.568726,253.968 646.272,256.739888 646.272,264.362579 C646.272,274.064187 638.887621,286.537682 633.613064,286.537682 C624.470499,286.537682 613.569748,285.151738 608.998466,285.151738 C601.614087,285.151738 598.80099,286.191196 597.394441,295.546318 C595.987893,305.247925 589.306788,345.786785 589.306788,359.299738 C589.306788,367.615402 595.284619,371.080262 601.965724,371.426748 C605.833732,371.773234 610.053377,371.080262 613.569748,369.694318 C616.382845,368.65486 618.141031,367.615402 618.844305,367.615402 C622.009039,367.615402 622.360676,369.347832 622.360676,372.812692 C622.360676,384.246729 614.62466,401.571028 597.746078,401.571028 C586.142054,401.571028 575.944577,390.483477 575.944577,368.308374 C575.944577,351.677047 584.735505,303.861981 584.735505,293.120916 C584.735505,288.963084 582.625682,284.805252 579.460948,284.805252 L553.088165,283.765794 C548.516882,283.419308 546.055423,285.498224 544.648874,290.695514 C534.099761,329.84843 531.286664,354.795421 530.58339,371.080262 C530.231753,382.167813 531.286664,389.097533 531.989938,393.255364 C533.044849,399.145626 533.396487,402.264 528.473567,402.264 C523.902285,402.264 507.726977,395.33428 507.726977,390.136991 L507.726977,390.136991 Z" id="Sign" fill="#FFFF00" fill-rule="nonzero"></path>
                    </g>
                </g>
            </g>
        </g>
    </g>
</svg>