<svg xmlns="http://www.w3.org/2000/svg" width="750" height="750" fill="none"><mask id="a" width="745" height="661" x="3" y="44" maskUnits="userSpaceOnUse" style="mask-type:alpha"><path fill="#fff" d="M747.608 247.241c0-112.179-91.919-203.116-205.289-203.116-68.825 0-129.556 33.612-166.819 84.988-37.263-51.376-97.994-84.988-166.798-84.988-113.39 0-205.31 90.916-205.31 203.116 0 15.89 2.04 31.287 5.535 46.127C37.431 468.594 234.355 653.453 375.5 704.212c141.124-50.759 338.07-235.618 366.532-410.823 3.537-14.841 5.576-30.237 5.576-46.148Z"/></mask><g mask="url(#a)"><path fill="#A30262" d="M-180.398 41.629H941.151V707.37H-180.398V41.629Z"/><path fill="#D362A4" d="M-180.398 41.629H941.151v532.594H-180.398V41.629Z"/><path fill="#fff" d="M-180.398 41.629H941.151v399.445H-180.398V41.629Z"/><path fill="#FF9A56" d="M-180.398 41.629H941.151v266.297H-180.398V41.629Z"/><path fill="#D52D00" d="M-180.398 41.629H941.151v133.148H-180.398V41.629Z"/></g></svg>