<svg width="256" height="256" viewBox="0 0 256 256" fill="none" xmlns="http://www.w3.org/2000/svg">
<g clip-path="url(#clip0_206_592)">
<mask id="mask0_206_592" style="mask-type:alpha" maskUnits="userSpaceOnUse" x="7" y="0" width="242" height="256">
<path d="M248.889 135.111C248.889 120.448 246.279 106.389 241.493 93.3831C238.222 131.705 217.792 151.388 196.444 142.222C176.448 133.632 189.924 100.146 190.919 84.1671C192.597 57.0809 190.834 26.0765 141.632 0.298676C162.076 39.4098 144 63.7085 125.042 65.1876C104.007 66.8302 84.7431 47.1111 91.8542 15.1111C68.8284 32.0782 68.16 60.6365 75.264 79.1111C82.6738 98.368 74.9653 114.368 56.896 116.146C36.7004 118.137 25.4791 94.5209 35.8258 56.8889C17.92 77.9733 7.11111 105.28 7.11111 135.111C7.11111 201.877 61.2338 256 128 256C194.766 256 248.889 201.877 248.889 135.111Z" fill="#F4900C"/>
<path d="M248.889 135.111C248.889 120.448 246.279 106.389 241.493 93.3831C238.222 131.705 217.792 151.388 196.444 142.222C176.448 133.632 189.924 100.146 190.919 84.1671C192.597 57.0809 190.834 26.0765 141.632 0.298676C162.076 39.4098 144 63.7085 125.042 65.1876C104.007 66.8302 84.7431 47.1111 91.8542 15.1111C68.8284 32.0782 68.16 60.6365 75.264 79.1111C82.6738 98.368 74.9653 114.368 56.896 116.146C36.7004 118.137 25.4791 94.5209 35.8258 56.8889C17.92 77.9733 7.11111 105.28 7.11111 135.111C7.11111 201.877 61.2338 256 128 256C194.766 256 248.889 201.877 248.889 135.111Z" fill="url(#paint0_linear_206_592)"/>
</mask>
<g mask="url(#mask0_206_592)">
<path d="M248.889 135.111C248.889 120.448 246.279 106.389 241.493 93.3831C238.222 131.705 217.792 151.388 196.444 142.222C176.448 133.632 189.924 100.146 190.919 84.1671C192.597 57.0809 190.834 26.0765 141.632 0.298676C162.076 39.4098 144 63.7085 125.042 65.1876C104.007 66.8302 84.7431 47.1111 91.8542 15.1111C68.8284 32.0782 68.16 60.6365 75.264 79.1111C82.6738 98.368 74.9653 114.368 56.896 116.146C36.7005 118.137 25.4791 94.5209 35.8258 56.8889C17.92 77.9733 7.11111 105.28 7.11111 135.111C7.11111 201.877 61.2338 256 128 256C194.766 256 248.889 201.877 248.889 135.111Z" fill="#F4900C"/>
<path d="M248.889 135.111C248.889 120.448 246.279 106.389 241.493 93.3831C238.222 131.705 217.792 151.388 196.444 142.222C176.448 133.632 189.924 100.146 190.919 84.1671C192.597 57.0809 190.834 26.0765 141.632 0.298676C162.076 39.4098 144 63.7085 125.042 65.1876C104.007 66.8302 84.7431 47.1111 91.8542 15.1111C68.8284 32.0782 68.16 60.6365 75.264 79.1111C82.6738 98.368 74.9653 114.368 56.896 116.146C36.7005 118.137 25.4791 94.5209 35.8258 56.8889C17.92 77.9733 7.11111 105.28 7.11111 135.111C7.11111 201.877 61.2338 256 128 256C194.766 256 248.889 201.877 248.889 135.111Z" fill="url(#paint1_linear_206_592)"/>
<path d="M44 142C-12.5 198 64 304 64 304L157.5 286.5L211.5 253C246 240 236 134.5 181.5 153C204.5 160 196.5 179.037 176 176C155.5 172.963 206 97.5 153 79.5C158.027 83.8411 178 115 163.5 123C149 131 141.188 100 148.5 88C131.5 94.5 142 108.25 127 112C112 115.75 123.5 77.5 112 73.5C106 105.5 88 88.5 96 63.5C55.5 89.5 119.351 135 102.5 156.5C87.44 175.714 65.5 164 79 121.5C61 126 41 184.5 44 142Z" fill="url(#paint2_linear_206_592)"/>
<path d="M201.913 184.66C202.965 206.59 183.701 215.188 173.333 211.035C158.357 205.04 162.375 194.743 158.521 173.41C154.667 152.076 139.854 137.264 117.931 130.743C133.931 175.778 109.063 192.375 96.0284 195.34C82.7164 198.37 69.3405 195.333 67.8116 166.846C52.2809 182.306 42.6667 189.696 42.6667 213.333C42.6667 215.95 42.8302 218.524 43.0578 221.084C64.8889 242.66 94.8764 256 128 256C161.124 256 191.111 242.66 212.942 221.084C213.17 218.524 213.333 215.95 213.333 213.333C213.333 197.781 209.18 197.211 201.913 184.66Z" fill="#FFCC4D"/>
<path d="M201.913 184.66C202.965 206.59 183.701 215.188 173.333 211.035C158.357 205.04 162.375 194.743 158.521 173.41C154.667 152.076 139.854 137.264 117.931 130.743C133.931 175.778 109.063 192.375 96.0284 195.34C82.7164 198.37 69.3405 195.333 67.8116 166.846C52.2809 182.306 42.6667 189.696 42.6667 213.333C42.6667 215.95 42.8302 218.524 43.0578 221.084C64.8889 242.66 94.8764 256 128 256C161.124 256 191.111 242.66 212.942 221.084C213.17 218.524 213.333 215.95 213.333 213.333C213.333 197.781 209.18 197.211 201.913 184.66Z" fill="url(#paint3_linear_206_592)"/>
</g>
</g>
<defs>
<linearGradient id="paint0_linear_206_592" x1="128" y1="0.298676" x2="128" y2="256" gradientUnits="userSpaceOnUse">
<stop stop-color="#EB38C0"/>
<stop offset="0.882676" stop-color="#4E0B59"/>
</linearGradient>
<linearGradient id="paint1_linear_206_592" x1="128" y1="0.298676" x2="128" y2="256" gradientUnits="userSpaceOnUse">
<stop stop-color="#A40061"/>
<stop offset="0.473958" stop-color="#B75592"/>
<stop offset="0.882676" stop-color="#D063A6"/>
</linearGradient>
<linearGradient id="paint2_linear_206_592" x1="133.25" y1="99" x2="133" y2="252" gradientUnits="userSpaceOnUse">
<stop offset="0.0170519" stop-color="#EDEDEB"/>
<stop offset="0.434695" stop-color="#E4ACCF"/>
<stop offset="0.847312" stop-color="#C54E54"/>
</linearGradient>
<linearGradient id="paint3_linear_206_592" x1="128" y1="130.743" x2="128" y2="256" gradientUnits="userSpaceOnUse">
<stop stop-color="#FFE1CC"/>
<stop offset="0.494792" stop-color="#FF9A56"/>
<stop offset="1" stop-color="#D52D00"/>
</linearGradient>
<clipPath id="clip0_206_592">
<rect width="256" height="256" fill="white"/>
</clipPath>
</defs>
</svg>
