<?xml version="1.0" encoding="UTF-8"?>
<svg width="750px" height="750px" viewBox="0 0 750 750" version="1.1" xmlns="http://www.w3.org/2000/svg" xmlns:xlink="http://www.w3.org/1999/xlink">
    <!-- Generator: Sketch 59.1 (86144) - https://sketch.com -->
    <title>Flag_MaleHomosexual</title>
    <desc>Created with Sketch.</desc>
    <defs>
        <path d="M0,457.328741 L0,83.4290088 C0,37.8160754 36.5699812,0.747978607 81.9553494,0.0111779646 L83.3333333,0 L666.666667,0 C712.227292,0 749.252879,36.6119675 749.988835,82.0494428 L750,83.4290088 L750,457.328741 C750,502.941674 713.430019,540.009771 668.044651,540.746572 L666.666667,540.75775 L83.3333333,540.75775 C37.7727083,540.75775 0.747120833,504.145782 0.0111651458,458.708307 L0,457.328741 L0,83.4290088 L0,457.328741 Z" id="path-1"></path>
    </defs>
    <g id="Flag_MaleHomosexual" stroke="none" stroke-width="1" fill="none" fill-rule="evenodd">
        <g id="Flag">
            <g id="Flags/Pride" transform="translate(0.000000, 105.000000)">
                <mask id="mask-2" fill="white">
                    <use xlink:href="#path-1"></use>
                </mask>
                <use id="Mask" fill="#EEEEEE" fill-rule="nonzero" xlink:href="#path-1"></use>
                <g id="Flags/Male-HomosexualImproved" mask="url(#mask-2)">
                    <g transform="translate(-76.000000, 0.000000)" id="male-homosexual">
                        <g>
                            <rect id="1" fill="#3F2077" x="0" y="0" width="902" height="541"></rect>
                            <rect id="2" fill="#504BCB" x="0" y="76.9884615" width="902" height="386.440462"></rect>
                            <rect id="3" fill="#7AACE1" x="0" y="154.670513" width="902" height="231.880923"></rect>
                            <rect id="7" stroke="#979797" fill="#118C70" x="0.5" y="0.5" width="901" height="153.670513"></rect>
                            <rect id="6" fill="#2DCDA9" x="0" y="76.9884615" width="902" height="154.670513"></rect>
                            <rect id="5" fill="#97E7C0" x="0" y="154.670513" width="902" height="153.976923"></rect>
                            <rect id="4" fill="#EFEFFF" x="0" y="231.658974" width="902" height="77.3213846"></rect>
                        </g>
                    </g>
                </g>
            </g>
        </g>
    </g>
</svg>