<?xml version="1.0" encoding="UTF-8"?>
<svg width="750px" height="750px" viewBox="0 0 750 750" version="1.1" xmlns="http://www.w3.org/2000/svg" xmlns:xlink="http://www.w3.org/1999/xlink">
    <!-- Generator: Sketch 59.1 (86144) - https://sketch.com -->
    <title>Flag_Polyamory</title>
    <desc>Created with Sketch.</desc>
    <defs>
        <path d="M0,457.328741 L0,83.4290088 C0,37.8160754 36.5699812,0.747978607 81.9553494,0.0111779646 L83.3333333,0 L666.666667,0 C712.227292,0 749.252879,36.6119675 749.988835,82.0494428 L750,83.4290088 L750,457.328741 C750,502.941674 713.430019,540.009771 668.044651,540.746572 L666.666667,540.75775 L83.3333333,540.75775 C37.7727083,540.75775 0.747120833,504.145782 0.0111651458,458.708307 L0,457.328741 L0,83.4290088 L0,457.328741 Z" id="path-1"></path>
    </defs>
    <g id="Flag_Polyamory" stroke="none" stroke-width="1" fill="none" fill-rule="evenodd">
        <g id="Flag">
            <g id="Flags/Pride" transform="translate(0.000000, 105.000000)">
                <mask id="mask-2" fill="white">
                    <use xlink:href="#path-1"></use>
                </mask>
                <use id="Mask" fill="#EEEEEE" fill-rule="nonzero" xlink:href="#path-1"></use>
                <g id="Flags/Polyamory" mask="url(#mask-2)">
                    <g transform="translate(-76.000000, 0.000000)" id="Polyamory">
                        <g>
                            <polygon id="Black" fill="#000000" fill-rule="nonzero" points="0 360.666667 902 360.666667 902 541 0 541"></polygon>
                            <polygon id="Red" fill="#FF0000" fill-rule="nonzero" points="0 180.333333 902 180.333333 902 360.666667 0 360.666667"></polygon>
                            <polygon id="Blue" fill="#0000FF" fill-rule="nonzero" points="0 5.68434189e-14 902 5.68434189e-14 902 180.333333 0 180.333333"></polygon>
                            <path d="M408.172668,316.913081 C408.172668,309.595255 410.434177,303.403249 412.412998,295.803969 L429.374318,236.698455 C430.787761,231.632268 430.222384,229.099174 424.003233,229.099174 C405.345781,229.099174 396.017056,234.165361 389.232528,254.430109 C388.667151,255.837383 388.667151,258.370477 386.405641,258.370477 C384.144132,258.370477 382.448,254.711564 382.448,247.675193 C382.448,232.758087 393.190169,211.36752 428.526252,211.36752 C440.964553,211.36752 454.25092,212.211885 466.689221,213.056249 C476.300635,213.619159 485.063984,214.182069 492.979266,214.182069 C500.61186,214.182069 505.982944,211.648975 509.940586,209.678791 C513.050161,207.708607 514.746293,206.301333 516.159736,206.301333 C518.986623,206.301333 519.552,208.552972 519.552,214.744978 C519.552,222.625713 513.615538,232.758087 509.375208,232.758087 C502.025303,232.758087 493.261955,231.632268 489.587002,231.632268 C483.65054,231.632268 481.389031,232.476632 480.258276,240.075913 C479.127522,247.956648 473.756437,280.886863 473.756437,291.863601 C473.756437,298.618517 478.562144,301.433065 483.933229,301.71452 C487.042804,301.995975 490.435068,301.433065 493.261955,300.307246 C495.523464,299.462882 496.936907,298.618517 497.502285,298.618517 C500.046482,298.618517 500.329171,300.025791 500.329171,302.84034 C500.329171,312.128349 494.110021,326.20109 480.540965,326.20109 C471.212239,326.20109 463.014268,317.194536 463.014268,299.181427 C463.014268,285.671595 470.081485,246.830829 470.081485,238.105729 C470.081485,234.728271 468.385353,231.350813 465.841155,231.350813 L444.639505,230.506449 C440.964553,230.224994 438.985732,231.913723 437.854977,236.135545 C429.374318,267.939941 427.112808,288.204688 426.547431,301.433065 C426.264742,310.43962 427.112808,316.068717 427.678186,319.446174 C428.526252,324.230907 428.80894,326.764 424.851299,326.764 C421.176346,326.764 408.172668,321.134903 408.172668,316.913081 L408.172668,316.913081 Z" id="Sign" fill="#FFFF00" fill-rule="nonzero"></path>
                        </g>
                    </g>
                </g>
            </g>
        </g>
    </g>
</svg>