<?xml version="1.0" encoding="UTF-8"?>
<svg width="750px" height="750px" viewBox="0 0 750 750" version="1.1" xmlns="http://www.w3.org/2000/svg" xmlns:xlink="http://www.w3.org/1999/xlink">
    <!-- Generator: Sketch 59.1 (86144) - https://sketch.com -->
    <title>Flag_Intersex</title>
    <desc>Created with Sketch.</desc>
    <defs>
        <path d="M0,457.328741 L0,83.4290088 C0,37.8160754 36.5699812,0.747978607 81.9553494,0.0111779646 L83.3333333,0 L666.666667,0 C712.227292,0 749.252879,36.6119675 749.988835,82.0494428 L750,83.4290088 L750,457.328741 C750,502.941674 713.430019,540.009771 668.044651,540.746572 L666.666667,540.75775 L83.3333333,540.75775 C37.7727083,540.75775 0.747120833,504.145782 0.0111651458,458.708307 L0,457.328741 L0,83.4290088 L0,457.328741 Z" id="path-1"></path>
    </defs>
    <g id="Flag_Intersex" stroke="none" stroke-width="1" fill="none" fill-rule="evenodd">
        <g id="Flag">
            <g id="Flags/Pride" transform="translate(0.000000, 105.000000)">
                <mask id="mask-2" fill="white">
                    <use xlink:href="#path-1"></use>
                </mask>
                <use id="Mask" fill="#EEEEEE" fill-rule="nonzero" xlink:href="#path-1"></use>
                <g id="Flags/Intersex" mask="url(#mask-2)">
                    <g transform="translate(-76.000000, 0.000000)" id="Intersex">
                        <g>
                            <rect id="Rectangle" fill="#FFD800" x="0" y="0" width="902" height="541"></rect>
                            <path d="M451,115.135897 C536.836945,115.135897 606.421538,184.850041 606.421538,270.846795 C606.421538,356.843549 536.836945,426.557692 451,426.557692 C365.163055,426.557692 295.578462,356.843549 295.578462,270.846795 C295.578462,184.850041 365.163055,115.135897 451,115.135897 Z M450.549503,160.269491 C389.841634,160.269491 340.628183,209.574566 340.628183,270.395459 C340.628183,331.216352 389.841634,380.521427 450.549503,380.521427 C511.257371,380.521427 560.470823,331.216352 560.470823,270.395459 C560.470823,209.574566 511.257371,160.269491 450.549503,160.269491 Z" id="Combined-Shape" fill="#7902AA"></path>
                        </g>
                    </g>
                </g>
            </g>
        </g>
    </g>
</svg>