<svg xmlns="http://www.w3.org/2000/svg" width="750" height="750" fill="none"><g clip-path="url(#a)"><mask id="b" width="750" height="541" x="0" y="105" maskUnits="userSpaceOnUse" style="mask-type:alpha"><path fill="#fff" d="M0 562.329v-373.9c0-45.613 36.57-82.681 81.955-83.418l1.378-.011h583.334c45.56 0 82.586 36.612 83.322 82.049l.011 1.38v373.9c0 45.613-36.57 82.681-81.955 83.418l-1.378.011H83.333c-45.56 0-82.586-36.612-83.322-82.05L0 562.329v-373.9 373.9Z"/></mask><g mask="url(#b)"><path fill="#A30262" d="M-76 105h901.667v541H-76V105Z"/><path fill="#D362A4" d="M-76 105h901.667v432.8H-76V105Z"/><path fill="#fff" d="M-76 105h901.667v324.6H-76V105Z"/><path fill="#FF9A56" d="M-76 105h901.667v216.4H-76V105Z"/><path fill="#D52D00" d="M-76 105h901.667v108.2H-76V105Z"/></g></g><defs><clipPath id="a"><path fill="#fff" d="M0 0h750v750H0z"/></clipPath></defs></svg>