<svg xmlns="http://www.w3.org/2000/svg" width="750" height="750" fill="none"><g clip-path="url(#a)"><mask id="b" width="750" height="541" x="0" y="105" maskUnits="userSpaceOnUse" style="mask-type:luminance"><path fill="#fff" d="M0 562.329v-373.9c0-45.613 36.57-82.681 81.955-83.418l1.378-.011h583.334c45.56 0 82.586 36.612 83.322 82.049l.011 1.38v373.9c0 45.613-36.57 82.681-81.955 83.418l-1.378.011H83.333c-45.56 0-82.586-36.612-83.322-82.05L0 562.329v-373.9 373.9Z"/></mask><g mask="url(#b)"><path fill="#74DFFF" d="M-76 105h901.667v538.919H-76z"/><path fill="#FEE1ED" d="M-76 181.989h901.667v384.942H-76z"/><path fill="#FFB5D7" d="M-76 258.977h901.667v230.965H-76z"/><path fill="#FE8DBF" d="M-76 335.965h901.667v76.989H-76z"/></g></g><defs><clipPath id="a"><path fill="#fff" d="M0 0h750v750H0z"/></clipPath></defs></svg>