<?xml version="1.0" encoding="utf-8"?>
<svg xmlns="http://www.w3.org/2000/svg" viewBox="0 0 288 192">
  <path fill="#00f" d="M0 0h288v64H0z"/>
  <path fill="red" d="M0 64h288v64H0z"/>
  <path d="M0 128h288v64H0z"/>
  <path d="M130.2 112.8c0-2.6.8-4.8 1.5-7.5l6-21c.5-1.8.3-2.7-1.9-2.7-6.6 0-9.9 1.8-12.3 9-.2.5-.2 1.4-1 1.4s-1.4-1.3-1.4-3.8c0-5.3 3.8-12.9 16.3-12.9 4.4 0 9.1.3 13.5.6 3.4.2 6.5.4 9.3.4 2.7 0 4.6-.9 6-1.6 1.1-.7 1.7-1.2 2.2-1.2 1 0 1.2.8 1.2 3 0 2.8-2.1 6.4-3.6 6.4-2.6 0-5.7-.4-7-.4-2.1 0-2.9.3-3.3 3-.4 2.8-2.3 14.5-2.3 18.4 0 2.4 1.7 3.4 3.6 3.5 1.1.1 2.3-.1 3.3-.5.8-.3 1.3-.6 1.5-.6.9 0 1 .5 1 1.5 0 3.3-2.2 8.3-7 8.3-3.3 0-6.2-3.2-6.2-9.6 0-4.8 2.5-18.6 2.5-21.7 0-1.2-.6-2.4-1.5-2.4l-7.5-.3c-1.3-.1-2 .5-2.4 2-3 11.3-3.8 18.5-4 23.2-.1 3.2.2 5.2.4 6.4.3 1.7.4 2.6-1 2.6-1.3 0-5.9-2-5.9-3.5z" fill="#ff0"/>
</svg>
