<?xml version="1.0" encoding="UTF-8"?>
<svg width="750px" height="750px" viewBox="0 0 750 750" version="1.1" xmlns="http://www.w3.org/2000/svg" xmlns:xlink="http://www.w3.org/1999/xlink">
    <!-- Generator: Sketch 59.1 (86144) - https://sketch.com -->
    <title>QueerCat_Polysecual</title>
    <desc>Created with Sketch.</desc>
    <defs>
        <path d="M137,10.491184 C169.909356,31.6028467 200.216212,57.3411768 227.920568,87.7061743 L227.906415,87.6909276 C303.535237,48.6398719 398.330789,32.7854228 512.804599,53.8564005 C545.560084,59.8652762 575.595185,70.9371383 602.461693,86.1202904 C630.351844,64.2487129 659.532233,48.0377186 690,37.491184 C742,19.491184 752,39.491184 742,95.491184 C736.143612,128.286958 730.544453,171.886375 725.202524,226.289436 C751.040354,288.623049 756.816299,361.342935 737.695901,434.165265 C718.989274,505.307678 743.284358,511.074392 743.225532,549.205313 C743.225532,554.207054 742.578448,559.149951 741.284279,564.034004 C722.342348,637.235958 564.747842,694.491184 373.093157,694.491184 C168.614433,694.491184 2.90195627,629.409704 2.90195627,549.205313 C-8.29910886,450.300619 12.854635,337.35327 67.5947738,243.417607 C66.5739827,140.132229 66.7065696,79.8231508 68,62.491184 C70.1617413,33.5238511 84,-23.508816 137,10.491184 Z" id="path-1"></path>
    </defs>
    <g id="QueerCat_Polysecual" stroke="none" stroke-width="1" fill="none" fill-rule="evenodd">
        <g id="Blobcat/Default" transform="translate(0.000000, 8.508816)">
            <g id="Blobcat">
                <g id="Body">
                    <mask id="mask-2" fill="white">
                        <use xlink:href="#path-1"></use>
                    </mask>
                    <use id="Mask" fill="#FCC21B" fill-rule="nonzero" xlink:href="#path-1"></use>
                    <g id="Flags/Polysexuality" mask="url(#mask-2)">
                        <g transform="translate(-264.000000, -18.000000)" id="Polysexuality">
                            <g>
                                <polygon id="Path" fill="#1C92F6" fill-rule="nonzero" points="0 0 1205 0 1205 723 0 723"></polygon>
                                <polygon id="Path" fill="#07D569" fill-rule="nonzero" points="0 0 1205 0 1205 482 0 482"></polygon>
                                <polygon id="Path" fill="#F61CB9" fill-rule="nonzero" points="0 0 1205 0 1205 241 0 241"></polygon>
                            </g>
                        </g>
                    </g>
                </g>
                <g id="Face" transform="translate(33.000000, 190.491184)">
                    <path d="M196,176 C209.333333,223.333333 219,247.333333 225,248 C231,248.666667 251.666667,230 287,192 C314.333333,238 330.666667,263.333333 336,268 C341.333333,272.666667 364,252.333333 404,207" id="Mouth" stroke="#2F2F2F" stroke-width="30" stroke-linecap="round" stroke-linejoin="round"></path>
                    <path d="M523.331105,109.833851 C515.931185,144.541462 486.603059,167.816784 457.818047,161.792583 C428.829367,155.699925 411.381848,122.635277 418.64599,87.9276657 C426.045911,53.1515973 455.374037,29.8762758 484.294827,35.9689335 C513.147728,41.9246775 530.663137,74.9208685 523.331105,109.833851 Z" id="Right-eye" fill="#2F2F2F" fill-rule="nonzero"></path>
                    <path d="M125.552099,36.726728 C140.80142,6.42791339 173.707848,-7.92064418 199.0565,4.42578908 C224.338268,16.8389598 232.564875,51.3422355 217.382437,81.5743126 C202.2,111.80639 169.360454,126.221685 144.011803,113.808514 C118.730035,101.395343 110.436545,66.8253301 125.552099,36.726728 Z" id="Left-eye" fill="#2F2F2F" fill-rule="nonzero"></path>
                    <g id="Wiskers" transform="translate(0.391648, 152.659469)" fill="#2F2F2F">
                        <path d="M483.608352,112.340531 C486.144618,108.420846 507.796286,121.280075 537.608352,141.340531 C567.420418,161.400986 598.21476,176.312446 595.608352,180.340531 C593.001944,184.368615 552.80306,174.639774 525.608352,156.340531 C498.413643,138.041288 481.072086,116.260215 483.608352,112.340531 Z" id="Right-bottom-wisker"></path>
                        <path d="M491.608352,57.3405307 C489.608352,51.3405307 489.608352,47.3405307 514.608352,48.3405307 C539.608352,49.3405307 597.608352,64.3405307 616.608352,80.3405307 C621.307533,84.297736 579.479187,79.4656964 548.608352,73.3405307 C517.737517,67.215365 493.608352,63.3405307 491.608352,57.3405307 Z" id="Right-top-wisker"></path>
                        <path d="M117.608352,60.3405307 C98.6083519,81.3405307 65.6083519,96.3405307 33.6083519,113.340531 C1.60835188,130.340531 -15.8306882,121.603955 19.6083519,100.340531 C55.0473919,79.0771067 103.608352,57.3405307 117.608352,60.3405307 Z" id="Left-bottom-wisker"></path>
                        <path d="M122.608352,0.340530712 C69.6083519,-1.65946929 15.6083519,5.34053071 6.60835188,16.3405307 C6.60835188,19.778701 109.608352,19.3405307 122.608352,16.3405307 C135.608352,13.3405307 131.244753,0.666432629 122.608352,0.340530712 Z" id="Left-top-wisker"></path>
                    </g>
                </g>
            </g>
        </g>
    </g>
</svg>