<svg xmlns="http://www.w3.org/2000/svg" width="750" height="750" fill="none"><g clip-path="url(#a)"><mask id="b" width="749" height="695" x="0" y="35" maskUnits="userSpaceOnUse" style="mask-type:alpha"><path fill="#fff" fill-rule="evenodd" d="M227.805 123.252c75.645-39.09 170.475-54.967 285-33.887 32.852 6.027 62.969 17.147 89.896 32.4C619.842 108.848 653.703 85.565 690 73c52-18 62 2 52 58-6.97 39.033-13.455 98.473-16.744 130.906 25.791 62.313 31.549 134.989 12.44 207.768-12.123 46.104-6.186 64.752-.522 82.545 3.076 9.664 6.072 19.075 6.052 32.495 0 5.002-.648 9.945-1.942 14.829C722.342 672.745 564.748 730 373.093 730 168.614 730 2.902 664.919 2.902 584.714c-11.204-98.926 9.962-211.902 64.729-305.85C67.126 222.277 66.447 118.815 68 98c2.162-28.967 16-86 69-52 41.162 26.406 76.896 62.463 90.805 77.252Z" clip-rule="evenodd"/></mask><g mask="url(#b)"><path fill="#A30262" d="M-215.453-53.223 980.565 93.63 892.453 811.24-303.565 664.388l88.112-717.61Z"/><path fill="#D362A4" d="M-215.453-53.223 980.565 93.63l-70.489 574.088-1196.018-146.852 70.489-574.089Z"/><path fill="#fff" d="M-215.453-53.223 980.565 93.63l-52.867 430.566L-268.32 377.344l52.867-430.567Z"/><path fill="#FF9A56" d="M-215.453-53.223 980.565 93.63 945.32 380.674-250.698 233.821l35.245-287.044Z"/><path fill="#D52D00" d="M-215.453-53.223 980.565 93.63l-17.622 143.522L-233.076 90.299l17.623-143.522Z"/></g><path stroke="#2F2F2F" stroke-linecap="round" stroke-linejoin="round" stroke-width="30" d="M229 402s20 71 29 72 62-56 62-56 41 69 49 76 68-61 68-61"/><path fill="#2F2F2F" d="M556.331 335.834c-7.4 34.707-36.728 57.983-65.513 51.959-28.989-6.093-46.436-39.158-39.172-73.865 7.4-34.776 36.728-58.052 65.649-51.959 28.853 5.956 46.368 38.952 39.036 73.865ZM158.552 262.727c15.249-30.299 48.156-44.648 73.505-32.301 25.281 12.413 33.508 46.916 18.325 77.148-15.182 30.232-48.022 44.648-73.37 32.235-25.282-12.414-33.575-46.984-18.46-77.082Z"/><path fill="#2F2F2F" fill-rule="evenodd" d="M517 491c2.536-3.92 24.188 8.939 54 29 29.812 20.06 60.606 34.972 58 39-2.606 4.028-42.805-5.701-70-24s-44.536-40.08-42-44ZM525 436c-2-6-2-10 23-9s83 16 102 32c4.699 3.957-37.129-.875-68-7-30.871-6.125-55-10-57-16ZM151 439c-19 21-52 36-84 53s-49.44 8.263-14-13c35.439-21.263 84-43 98-40ZM156 379c-53-2-107 5-116 16 0 3.438 103 3 116 0s8.636-15.674 0-16Z" clip-rule="evenodd"/></g><defs><clipPath id="a"><path fill="#fff" d="M0 0h750v750H0z"/></clipPath></defs></svg>