<?xml version="1.0" encoding="UTF-8" standalone="no"?>
<svg
   width="750px"
   height="750px"
   viewBox="0 0 750 750"
   version="1.1"
   id="svg25"
   sodipodi:docname="QueerCat_Polyamory_New.svg"
   xml:space="preserve"
   inkscape:version="1.2.2 (b0a8486541, 2022-12-01)"
   inkscape:export-filename="../../../../../../var/ram/QueerCat_Polyamory_New.png"
   inkscape:export-xdpi="69.7666"
   inkscape:export-ydpi="69.7666"
   xmlns:inkscape="http://www.inkscape.org/namespaces/inkscape"
   xmlns:sodipodi="http://sodipodi.sourceforge.net/DTD/sodipodi-0.dtd"
   xmlns:xlink="http://www.w3.org/1999/xlink"
   xmlns="http://www.w3.org/2000/svg"
   xmlns:svg="http://www.w3.org/2000/svg"
   xmlns:rdf="http://www.w3.org/1999/02/22-rdf-syntax-ns#"
   xmlns:cc="http://creativecommons.org/ns#"
   xmlns:dc="http://purl.org/dc/elements/1.1/"><sodipodi:namedview
     id="namedview27"
     bordercolor="#eeeeee"
     borderopacity="1"
     inkscape:showpageshadow="0"
     inkscape:pageopacity="0"
     inkscape:pagecheckerboard="true"
     showgrid="false"
     inkscape:current-layer="Blobcat"
     pagecolor="#505050"
     inkscape:deskcolor="#505050"
     shape-rendering="auto"
     borderlayer="true"
     showborder="true" /><!--
    Generator: Sketch 54.1 (76490) - https://sketchapp.com --><title
     id="title2">Queer Cat</title><desc
     id="desc4">Created with Sketch.</desc><defs
     id="defs7"><path
       d="M227.906579,87.6908427 C303.535374,48.6398489 398.330872,32.7854381 512.804599,53.8564005 C545.560576,59.8653664 575.596087,70.9374708 602.462903,86.1209744 C630.354683,64.2471357 659.533716,48.0372055 690,37.491184 C742,19.491184 752,39.491184 742,95.491184 C736.144211,128.283603 730.545599,171.877455 725.204164,226.27274 C751.039563,288.613086 756.817609,361.337947 737.695901,434.165265 C718.989274,505.307678 743.284358,511.074392 743.225532,549.205313 C743.225532,554.207054 742.578448,559.149951 741.284279,564.034004 C722.342348,637.235958 564.747842,694.491184 373.093157,694.491184 C168.614433,694.491184 2.90195627,629.409704 2.90195627,549.205313 C-8.29960895,450.296204 12.8565239,337.343185 67.6021059,243.405026 C66.5739942,140.127016 66.7066256,79.8224017 68,62.491184 C70.1617413,33.5238511 84,-23.508816 137,10.491184 C169.903818,31.5992934 200.206011,57.332513 227.906579,87.6908427 Z"
       id="path-1" /><clipPath
       clipPathUnits="userSpaceOnUse"
       id="clipPath473"><use
         id="use475"
         fill="#fcc21b"
         fill-rule="nonzero"
         xlink:href="#path-1"
         style="display:inline;stroke-width:1.69"
         inkscape:label="body"
         transform="matrix(0.76923077,0,0,0.76923077,-2.6855468e-5,6.5452431)" /></clipPath></defs><g
     id="Queer-Cat"
     stroke="none"
     stroke-width="1"
     fill="none"
     fill-rule="evenodd"><g
       id="Blobcat"
       transform="translate(0.000000, 8.508816)"><g
         id="Layer_1-2"
         transform="matrix(1.3,0,0,1.3,3.4912109e-5,-8.508816)"
         style="display:inline;opacity:1;stroke-width:0.769231"
         inkscape:label="flag"
         mask="none"
         clip-path="url(#clipPath473)"><rect
           y="-567.66998"
           width="924.09003"
           height="203.20616"
           transform="scale(-1)"
           style="fill:#340c46;stroke-width:0.769231"
           id="rect242"
           x="-924.08997" /><rect
           y="-379.3931"
           width="924.09003"
           height="197.05232"
           transform="scale(-1)"
           style="fill:#e50051;stroke-width:0.769231"
           id="rect244"
           x="-924.08997" /><rect
           y="-191.12614"
           width="924.09003"
           height="190.89845"
           transform="scale(-1)"
           style="fill:#009fe3;stroke-width:0.769231"
           id="rect246"
           x="-924.08997" /><polygon
           points="185.2,0 0,0 0,555.59 370.39,185.2 "
           style="fill:#ffffff;stroke-width:0.769231"
           id="polygon248" /><path
           d="m 89.62,94.72 v 0 c -23.89,23.89 -23.89,62.64 0,86.53 l 3.82,3.82 v 0 c 0,0 -4.07,4.07 -4.07,4.07 -23.89,23.89 -23.89,62.64 0,86.53 v 0 c 23.89,23.89 62.64,23.89 86.53,0 l 4.07,-4.07 86.53,-86.53 0.79,-0.79 -87.09,-85.52 -0.23,-0.23 -3.82,-3.82 c -23.89,-23.89 -62.64,-23.89 -86.53,0 z"
           style="fill:#fcbf00;stroke-width:0.769231"
           id="path250" /></g><g
         id="Face"
         transform="translate(33.000000, 190.491184)"><path
           d="M196,176 C209.333333,223.333333 219,247.333333 225,248 C231,248.666667 251.666667,230 287,192 C314.333333,238 330.666667,263.333333 336,268 C341.333333,272.666667 364,252.333333 404,207"
           id="Mouth"
           stroke="#2F2F2F"
           stroke-width="30"
           stroke-linecap="round"
           stroke-linejoin="round" /><path
           d="M523.331105,109.833851 C515.931185,144.541462 486.603059,167.816784 457.818047,161.792583 C428.829367,155.699925 411.381848,122.635277 418.64599,87.9276657 C426.045911,53.1515973 455.374037,29.8762758 484.294827,35.9689335 C513.147728,41.9246775 530.663137,74.9208685 523.331105,109.833851 Z"
           id="Right-eye"
           fill="#2F2F2F"
           fill-rule="nonzero" /><path
           d="M125.552099,36.726728 C140.80142,6.42791339 173.707848,-7.92064418 199.0565,4.42578908 C224.338268,16.8389598 232.564875,51.3422355 217.382437,81.5743126 C202.2,111.80639 169.360454,126.221685 144.011803,113.808514 C118.730035,101.395343 110.436545,66.8253301 125.552099,36.726728 Z"
           id="Left-eye"
           fill="#2F2F2F"
           fill-rule="nonzero" /><g
           id="Wiskers"
           transform="translate(0.391648, 152.659469)"
           fill="#2F2F2F"><path
             d="M483.608352,112.340531 C486.144618,108.420846 507.796286,121.280075 537.608352,141.340531 C567.420418,161.400986 598.21476,176.312446 595.608352,180.340531 C593.001944,184.368615 552.80306,174.639774 525.608352,156.340531 C498.413643,138.041288 481.072086,116.260215 483.608352,112.340531 Z"
             id="Right-bottom-wisker" /><path
             d="M491.608352,57.3405307 C489.608352,51.3405307 489.608352,47.3405307 514.608352,48.3405307 C539.608352,49.3405307 597.608352,64.3405307 616.608352,80.3405307 C621.307533,84.297736 579.479187,79.4656964 548.608352,73.3405307 C517.737517,67.215365 493.608352,63.3405307 491.608352,57.3405307 Z"
             id="Right-top-wisker" /><path
             d="M117.608352,60.3405307 C98.6083519,81.3405307 65.6083519,96.3405307 33.6083519,113.340531 C1.60835188,130.340531 -15.8306882,121.603955 19.6083519,100.340531 C55.0473919,79.0771067 103.608352,57.3405307 117.608352,60.3405307 Z"
             id="Left-bottom-wisker" /><path
             d="M122.608352,0.340530712 C69.6083519,-1.65946929 15.6083519,5.34053071 6.60835188,16.3405307 C6.60835188,19.778701 109.608352,19.3405307 122.608352,16.3405307 C135.608352,13.3405307 131.244753,0.666432629 122.608352,0.340530712 Z"
             id="Left-top-wisker" /></g></g></g></g><metadata
     id="metadata1401"><rdf:RDF><cc:Work
         rdf:about=""><dc:title>Queer Cat</dc:title></cc:Work></rdf:RDF></metadata></svg>
