<svg xmlns="http://www.w3.org/2000/svg" xmlns:xlink="http://www.w3.org/1999/xlink" viewBox="0 0 750 750">
  <defs>
    <path d="M137 10.491c32.91 21.112 63.216 46.85 90.92 77.215l-.014-.015c75.63-39.051 170.425-54.906 284.899-33.835 32.755 6.01 62.79 17.081 89.657 32.264 27.89-21.871 57.07-38.082 87.538-48.629 52-18 62 2 52 58-5.856 32.796-11.456 76.395-16.797 130.798 25.837 62.334 31.613 135.054 12.493 207.876-18.707 71.143 5.588 76.91 5.53 115.04 0 5.002-.648 9.945-1.942 14.829-18.942 73.202-176.536 130.457-368.19 130.457-204.48 0-370.192-65.081-370.192-145.286-11.201-98.904 9.953-211.852 64.693-305.787C66.574 140.132 66.707 79.823 68 62.49c2.162-28.967 16-86 69-52z" id="a"/>
  </defs>
  <g fill="none" fill-rule="evenodd">
    <g transform="translate(0 8.509)">
      <mask id="b" fill="#fff">
        <use xlink:href="#a"/>
      </mask>
      <use fill="#FCC21B" fill-rule="nonzero" xlink:href="#a"/>
      <g fill-rule="nonzero" mask="url(#b)">
        <path fill="#0038A8" d="M-264 415.8H941V705H-264z"/>
        <path fill="#9B4F96" d="M-264 271.2H941v144.6H-264z"/>
        <path fill="#D60270" d="M-264-18H941v289.2H-264z"/>
      </g>
    </g>
    <path d="M229 375c13.333 47.333 23 71.333 29 72 6 .667 26.667-18 62-56 27.333 46 43.667 71.333 49 76 5.333 4.667 28-15.667 68-61" stroke="#2F2F2F" stroke-width="30" stroke-linecap="round" stroke-linejoin="round"/>
    <path d="M556.331 308.834c-7.4 34.707-36.728 57.983-65.513 51.959-28.989-6.093-46.436-39.158-39.172-73.865 7.4-34.776 36.728-58.052 65.649-51.96 28.853 5.957 46.368 38.953 39.036 73.866zM158.552 235.727c15.25-30.3 48.156-44.648 73.505-32.301 25.281 12.413 33.508 46.916 18.325 77.148-15.182 30.232-48.022 44.648-73.37 32.235-25.282-12.414-33.575-46.984-18.46-77.082z" fill="#2F2F2F" fill-rule="nonzero"/>
    <g fill="#2F2F2F">
      <path d="M517 464c2.536-3.92 24.188 8.94 54 29 29.812 20.06 60.606 34.972 58 39-2.606 4.028-42.805-5.7-70-24s-44.536-40.08-42-44zM525 409c-2-6-2-10 23-9s83 16 102 32c4.7 3.957-37.13-.875-68-7-30.87-6.125-55-10-57-16zM151 412c-19 21-52 36-84 53s-49.439 8.263-14-13c35.439-21.263 84-43 98-40zM156 352c-53-2-107 5-116 16 0 3.438 103 3 116 0s8.636-15.674 0-16z"/>
    </g>
  </g>
</svg>
