<svg xmlns="http://www.w3.org/2000/svg" width="750" height="750" fill="none"><g clip-path="url(#a)"><mask id="b" width="749" height="695" x="0" y="35" maskUnits="userSpaceOnUse" style="mask-type:luminance"><path fill="#fff" fill-rule="evenodd" d="M227.805 123.252c75.645-39.09 170.475-54.967 285-33.887 32.852 6.027 62.969 17.147 89.896 32.4C619.842 108.848 653.703 85.565 690 73c52-18 62 2 52 58-6.97 39.034-13.455 98.473-16.744 130.906 25.791 62.313 31.549 134.989 12.44 207.768-12.123 46.104-6.186 64.752-.522 82.545 3.076 9.664 6.072 19.075 6.052 32.495 0 5.002-.648 9.945-1.942 14.829C722.342 672.745 564.748 730 373.093 730 168.614 730 2.902 664.919 2.902 584.714c-11.204-98.926 9.962-211.902 64.729-305.85C67.126 222.277 66.447 118.815 68 98c2.162-28.967 16-86 69-52 41.162 26.406 76.896 62.463 90.805 77.252Z" clip-rule="evenodd"/></mask><g mask="url(#b)"><path fill="#74DFFF" d="M-215.453-53.223 980.565 93.63l-87.772 714.85-1196.019-146.852z"/><path fill="#FEE1ED" d="M-227.992 48.899 968.026 195.752l-62.695 510.607-1196.018-146.853z"/><path fill="#FFB5D7" d="M-240.531 151.02 955.487 297.873 917.87 604.237-278.148 457.384z"/><path fill="#FE8DBF" d="M-253.07 253.142 942.948 399.995l-12.539 102.12-1196.018-146.852z"/></g><path fill="#2F2F2F" d="M556.331 335.834c-7.4 34.707-36.728 57.983-65.513 51.959-28.989-6.093-46.436-39.158-39.172-73.865 7.4-34.776 36.728-58.052 65.649-51.959 28.853 5.956 46.368 38.952 39.036 73.865ZM158.552 262.727c15.249-30.299 48.156-44.648 73.505-32.301 25.281 12.413 33.508 46.916 18.325 77.148-15.182 30.232-48.022 44.648-73.37 32.235-25.282-12.414-33.575-46.984-18.46-77.082Z"/><path fill="#2F2F2F" fill-rule="evenodd" d="M517 491c2.536-3.92 24.188 8.94 54 29 29.812 20.06 60.606 34.972 58 39-2.607 4.028-42.806-5.701-70-24-27.195-18.299-44.536-40.08-42-44ZM525 436c-2-6-2-10 23-9s83 16 102 32c4.699 3.957-37.129-.875-68-7-30.871-6.125-55-10-57-16ZM151 439c-19 21-52 36-84 53s-49.44 8.263-14-13c35.439-21.263 84-43 98-40ZM156 379c-53-2-107 5-116 16 0 3.438 103 3 116 0s8.636-15.674 0-16ZM222.299 389.133c-5.865 2.892-8.959 10.092-7.228 16.821 2.52 9.797 10.578 35.053 14.695 46.055 10.238 27.363 17.525 36.544 28.952 36.478 8.519-.049 18.139-6.97 41.56-29.898 9.387-9.19 17.126-16.019 17.569-15.502.436.507 5.227 8.122 10.647 16.922 13.416 21.782 24.772 38.502 29.366 43.236 7.147 7.365 16.749 7.528 27.43.464 11.737-7.762 33.623-28.904 58.52-56.533 6.945-7.707 8.72-12.162 7.134-17.907-1.321-4.784-6.12-9.515-10.483-10.333-6.719-1.261-10.017.186-16.796 7.369-25.212 26.715-31.033 32.694-39.385 40.454-5.179 4.813-9.848 8.75-10.376 8.75-1.177 0-11.076-15.234-29.458-45.336-11.802-19.326-14.516-23.131-17.656-24.75-4.021-2.074-8.291-2.434-12.025-1.015-1.301.495-10.893 9.538-21.315 20.097-22.233 22.523-30.177 29.677-31.492 28.362-1.544-1.544-8.482-20.777-14.017-38.858-2.862-9.35-5.932-18.28-6.823-19.845-3.304-5.81-12.341-8.225-18.819-5.031Z" clip-rule="evenodd"/></g><defs><clipPath id="a"><path fill="#fff" d="M0 0h750v750H0z"/></clipPath></defs></svg>