<?xml version="1.0" encoding="UTF-8"?>
<svg version="1.1" viewBox="0 0 750 750" xmlns="http://www.w3.org/2000/svg" xmlns:xlink="http://www.w3.org/1999/xlink">
  <defs>
    <path id="a" d="m137 10.491c32.91 21.112 63.216 46.85 90.92 77.215l-0.014-0.015c75.63-39.051 170.42-54.906 284.9-33.835 32.755 6.01 62.79 17.081 89.657 32.264 27.89-21.871 57.07-38.082 87.538-48.629 52-18 62 2 52 58-5.856 32.796-11.456 76.395-16.797 130.8 25.837 62.334 31.613 135.05 12.493 207.88-18.707 71.143 5.588 76.91 5.53 115.04 0 5.002-0.648 9.945-1.942 14.829-18.942 73.202-176.54 130.46-368.19 130.46-204.48 0-370.19-65.081-370.19-145.29-11.201-98.904 9.953-211.85 64.693-305.79-1.021-103.29-0.888-163.6 0.405-180.93 2.162-28.967 16-86 69-52z"/>
  </defs>
  <g fill="none" fill-rule="evenodd">
    <g transform="translate(0 8.509)">
      <mask id="b" fill="#fff">
        <use xlink:href="#a"/>
      </mask>
      <g mask="url(#b)">
        <path d="m-264 516.25h1205v184.75h-1205z" fill="#000"/>
        <path d="M-264 343.5H941v180.75H-264z" fill="#9C59D1"/>
        <path d="m-264 151.75h1205v191.75h-1205z" fill="#fff"/>
        <path d="m-264-18h1205v181h-1205z" fill="#fff430"/>
      </g>
    </g>
    <path d="m229 375c13.333 47.333 23 71.333 29 72s26.667-18 62-56c27.333 46 43.667 71.333 49 76s28-15.667 68-61" stroke="#2F2F2F" stroke-linecap="round" stroke-linejoin="round" stroke-width="30"/>
    <path d="m556.33 308.83c-7.4 34.707-36.728 57.983-65.513 51.959-28.989-6.093-46.436-39.158-39.172-73.865 7.4-34.776 36.728-58.052 65.649-51.96 28.853 5.957 46.368 38.953 39.036 73.866zm-397.78-73.107c15.25-30.3 48.156-44.648 73.505-32.301 25.281 12.413 33.508 46.916 18.325 77.148-15.182 30.232-48.022 44.648-73.37 32.235-25.282-12.414-33.575-46.984-18.46-77.082z" fill="#2f2f2f" fill-rule="nonzero"/>
    <g fill="#2F2F2F">
      <path d="m517 464c2.536-3.92 24.188 8.94 54 29s60.606 34.972 58 39-42.805-5.7-70-24-44.536-40.08-42-44zm8-55c-2-6-2-10 23-9s83 16 102 32c4.7 3.957-37.13-0.875-68-7s-55-10-57-16zm-374 3c-19 21-52 36-84 53s-49.439 8.263-14-13 84-43 98-40zm5-60c-53-2-107 5-116 16 0 3.438 103 3 116 0s8.636-15.674 0-16z"/>
    </g>
  </g>
</svg>
